<?xml version="1.0" standalone="no"?>
<!DOCTYPE svg PUBLIC "-//W3C//DTD SVG 20010904//EN"
 "http://www.w3.org/TR/2001/REC-SVG-20010904/DTD/svg10.dtd">
<svg version="1.0" xmlns="http://www.w3.org/2000/svg"
 width="1373.000000pt" height="1600.000000pt" viewBox="0 0 1373.000000 1600.000000"
 preserveAspectRatio="xMidYMid meet">

<g transform="translate(0.000000,1600.000000) scale(0.100000,-0.100000)"
fill="#000000" stroke="none">
<path d="M8990 15899 c-190 -165 -465 -361 -642 -458 -136 -75 -342 -131 -427
-117 -79 13 -98 17 -146 33 -73 23 -143 60 -200 105 -111 87 -166 188 -198
363 -16 89 -25 115 -37 115 -14 0 -189 -164 -840 -790 -124 -118 -326 -312
-450 -430 -124 -117 -279 -266 -345 -330 -66 -64 -172 -165 -235 -226 -63 -60
-218 -208 -345 -330 -214 -205 -553 -530 -861 -824 -1139 -1090 -1394 -1336
-1394 -1347 0 -6 65 -123 144 -260 78 -136 168 -291 198 -343 30 -52 104 -180
165 -285 390 -673 1666 -2960 2179 -3905 76 -140 189 -347 251 -460 63 -113
139 -256 171 -317 32 -65 63 -113 71 -113 27 0 68 35 386 334 543 511 1683
1604 2695 2586 394 381 549 531 634 610 39 36 102 97 140 136 71 72 223 218
671 649 132 127 267 257 300 290 33 33 168 164 300 290 455 437 677 641 745
686 24 16 24 16 -45 38 -148 48 -275 129 -406 260 -78 79 -103 111 -137 181
-52 107 -66 173 -58 270 13 164 100 326 230 429 129 102 341 226 456 266 l34
12 -74 36 c-133 64 -214 142 -382 371 -92 125 -208 293 -208 302 0 4 -17 30
-39 58 -21 28 -50 73 -65 99 -14 26 -61 105 -104 175 -83 133 -147 246 -228
399 -57 106 -33 96 -274 113 -402 27 -581 51 -755 100 -38 11 -79 22 -90 25
-47 11 -211 83 -270 119 -76 45 -203 154 -233 199 -124 183 -173 303 -192 463
-15 130 -13 187 12 325 24 140 27 181 13 185 -5 2 -57 -37 -115 -87z m-508
-1798 c136 -66 355 -143 468 -165 14 -2 59 -12 100 -20 251 -52 567 -78 967
-80 203 -1 284 -4 287 -13 3 -6 -2 -33 -10 -60 -29 -94 -63 -259 -75 -368 -21
-182 -17 -505 9 -670 48 -300 111 -520 208 -724 30 -63 54 -116 54 -119 0 -2
-6 -2 -14 1 -17 7 -334 226 -476 330 -58 42 -125 92 -150 109 -189 137 -525
419 -730 614 -47 45 -101 95 -120 112 -236 207 -512 543 -575 700 -12 32 -26
66 -30 77 -5 11 -9 22 -10 25 -1 3 -7 23 -14 45 -13 44 -28 265 -17 265 3 0
61 -27 128 -59z m-1397 -697 c85 -74 145 -134 145 -144 0 -10 -12 -26 -27 -36
-105 -68 -2100 -1820 -2405 -2111 -48 -46 -92 -83 -97 -83 -13 0 -131 91 -143
110 -13 21 2343 2386 2380 2390 1 0 68 -57 147 -126z m736 -634 c96 -77 175
-144 177 -148 2 -8 -53 -56 -353 -308 -110 -93 -299 -254 -420 -359 -121 -105
-384 -330 -585 -500 -201 -170 -502 -428 -669 -574 -167 -147 -367 -321 -445
-388 l-140 -121 -35 29 c-20 16 -41 29 -48 29 -48 0 -5 53 282 349 104 108
219 227 255 266 36 38 88 92 115 120 100 102 464 482 521 545 32 36 164 173
294 305 303 310 674 696 774 808 44 48 85 87 91 87 7 0 90 -63 186 -140z m794
-659 c127 -101 230 -186 230 -191 0 -4 -88 -90 -195 -191 -107 -100 -445 -417
-750 -703 -305 -286 -560 -525 -566 -531 -6 -5 -188 -176 -404 -380 -217 -203
-451 -423 -519 -487 l-125 -118 -31 29 c-16 15 -74 65 -127 110 -54 44 -108
91 -120 104 -13 12 -36 32 -53 44 l-30 21 75 79 c41 43 131 134 200 204 69 69
294 298 500 509 206 211 492 503 635 649 143 146 368 376 500 511 132 135 305
311 385 392 90 93 148 144 154 139 6 -4 115 -90 241 -190z m895 -771 c0 -7
-307 -302 -1235 -1189 -198 -190 -407 -390 -465 -446 -58 -56 -217 -209 -355
-340 -137 -131 -292 -279 -344 -329 -52 -50 -88 -82 -81 -71 19 26 108 137
190 235 36 43 81 98 100 122 53 67 346 411 570 668 26 30 67 78 91 107 24 29
80 94 124 145 44 51 221 257 393 458 172 201 336 391 363 423 28 31 67 78 88
105 21 26 51 61 67 77 16 17 47 52 69 80 22 27 68 80 103 117 l64 67 129 -111
c71 -61 129 -114 129 -118z m-4898 -1280 c561 -488 1793 -1548 1852 -1593 20
-15 36 -34 36 -41 0 -16 -105 -132 -132 -147 -17 -9 -138 108 -1076 1047 -581
582 -1041 1045 -1021 1028 20 -16 173 -148 341 -294z"/>
<path d="M13313 11733 c-219 -224 -916 -927 -1548 -1562 -633 -636 -1195
-1203 -1250 -1261 -55 -58 -323 -330 -595 -605 -272 -274 -540 -549 -595 -610
-101 -111 -119 -130 -170 -175 -31 -27 227 298 372 470 249 294 485 566 636
734 40 44 81 91 92 106 11 15 46 55 77 91 31 35 103 118 160 184 97 114 341
391 488 555 37 41 82 93 101 115 19 22 53 60 75 85 23 25 59 65 79 90 20 24
43 49 50 55 7 5 46 48 86 95 40 47 79 90 86 95 6 6 25 27 41 48 17 20 64 74
105 120 42 45 149 165 239 267 89 102 268 302 396 445 129 143 280 311 336
374 55 63 124 139 152 170 28 31 125 139 214 241 125 142 159 186 145 189 -13
2 -213 -191 -685 -660 -884 -880 -1569 -1553 -1930 -1896 -162 -154 -333 -322
-380 -373 -47 -51 -301 -301 -565 -555 -264 -255 -750 -734 -1081 -1066 -330
-332 -724 -723 -875 -869 -150 -146 -386 -375 -524 -511 -137 -135 -374 -359
-525 -498 -151 -140 -274 -256 -273 -259 5 -12 36 -10 69 4 32 14 255 78 354
103 128 31 234 45 355 45 116 0 138 -3 203 -27 151 -54 226 -103 384 -248 90
-82 116 -96 142 -75 8 6 103 115 210 241 108 127 232 271 276 320 157 180 264
301 296 335 40 44 222 250 423 480 84 96 181 207 216 245 108 122 189 215 221
255 17 22 56 68 87 102 31 35 175 203 322 373 146 171 276 321 289 335 34 39
236 275 280 328 21 26 62 74 91 107 144 165 664 769 740 860 33 40 100 119
150 176 49 57 100 115 111 129 12 14 144 169 293 345 149 176 298 352 330 390
33 39 98 115 145 170 46 55 168 199 271 320 102 121 194 229 203 240 80 94
153 180 201 234 31 35 65 76 76 91 11 14 44 53 72 86 29 32 177 205 329 384
152 179 292 343 310 365 36 41 40 50 25 59 -5 3 -188 -177 -408 -401z"/>
<path d="M2575 11392 c-44 -38 -217 -199 -386 -358 -168 -159 -370 -350 -449
-424 -80 -74 -183 -171 -230 -215 -47 -44 -181 -169 -298 -279 -117 -109 -211
-203 -209 -210 2 -6 28 -24 58 -40 160 -84 307 -235 359 -366 63 -160 38 -393
-61 -569 -96 -171 -219 -274 -513 -436 -71 -39 -131 -76 -133 -81 -2 -6 34
-34 79 -64 97 -62 199 -162 284 -275 73 -97 345 -522 599 -935 103 -168 196
-317 207 -332 20 -30 15 -28 208 -52 69 -9 139 -19 155 -22 297 -55 440 -88
595 -140 407 -135 728 -413 854 -739 45 -119 62 -184 96 -388 17 -102 34 -173
42 -179 9 -6 27 9 62 49 91 107 321 327 426 409 192 150 383 259 512 294 276
74 517 35 741 -119 40 -28 92 -71 117 -96 40 -41 70 -57 70 -37 -1 10 -141
271 -322 599 -43 79 -78 145 -78 147 0 3 -15 31 -34 63 -18 32 -65 117 -103
188 -96 178 -125 232 -198 365 -35 63 -88 160 -117 215 -29 55 -71 133 -93
173 -22 40 -87 160 -145 267 -58 107 -123 227 -145 267 -22 40 -66 122 -98
183 -32 60 -66 123 -76 140 -11 16 -55 98 -99 180 -44 83 -145 271 -226 419
-80 147 -146 272 -146 276 0 5 -6 15 -13 22 -7 7 -28 42 -47 78 -39 75 -177
330 -292 537 -43 79 -78 145 -78 148 0 2 -35 69 -79 147 -90 165 -279 513
-446 823 -75 139 -202 371 -221 402 -10 18 -26 33 -34 33 -8 0 -51 -31 -95
-68z m-31 -2492 c105 -113 299 -318 431 -455 742 -775 1044 -1116 1164 -1318
l23 -37 -24 9 c-12 5 -66 28 -118 50 -211 93 -532 201 -710 240 -225 50 -352
63 -678 68 -262 5 -312 8 -308 19 10 27 75 299 81 339 3 23 8 52 10 65 17 83
27 266 21 420 -7 197 -53 505 -109 731 l-33 129 29 -28 c16 -15 115 -119 221
-232z"/>
<path d="M4585 4045 c-259 -41 -459 -142 -646 -327 -172 -171 -286 -377 -333
-604 -83 -402 -7 -786 214 -1079 109 -144 267 -273 445 -363 136 -68 383 -123
555 -124 304 -1 534 82 765 273 80 67 205 199 205 217 0 5 -63 60 -139 121
-96 76 -148 111 -165 111 -18 0 -51 -23 -108 -76 -123 -113 -262 -187 -406
-214 -93 -19 -299 -8 -387 20 -188 59 -370 213 -459 389 -38 73 -83 236 -91
326 -13 149 25 356 91 501 93 206 304 377 528 429 108 25 274 21 379 -10 144
-42 255 -104 358 -203 32 -29 65 -54 75 -54 15 -1 203 119 259 164 5 5 22 17
38 29 15 11 27 27 27 36 0 22 -173 190 -255 247 -144 100 -305 163 -487 190
-125 19 -348 19 -463 1z"/>
<path d="M22 4032 c-9 -7 -12 -54 -10 -203 l3 -194 395 -3 c229 -1 398 -6 404
-12 5 -5 8 -385 7 -982 -1 -711 2 -983 10 -1010 l12 -36 208 1 209 2 0 1018 0
1017 401 0 c257 0 407 4 420 10 18 10 19 23 19 188 0 97 -5 184 -10 192 -8 13
-136 15 -1032 17 -563 2 -1029 -1 -1036 -5z"/>
<path d="M2570 4033 c-55 -10 -52 68 -45 -1222 7 -1183 7 -1196 27 -1213 18
-16 43 -18 208 -18 165 0 189 2 202 18 14 15 15 149 9 1215 -6 1171 -6 1199
-25 1213 -16 11 -57 14 -185 13 -91 -1 -177 -4 -191 -6z"/>
<path d="M6294 4027 c-2 -7 -3 -559 -2 -1227 l3 -1215 224 0 224 0 -2 368 -2
367 92 103 c51 56 105 113 119 127 14 14 44 47 67 75 27 31 46 46 52 40 23
-25 263 -331 397 -506 223 -291 426 -545 449 -560 15 -11 79 -15 265 -17 244
-3 285 2 263 30 -6 7 -88 110 -182 228 -94 118 -188 235 -209 259 -20 24 -55
67 -77 95 -22 29 -64 81 -92 117 -284 349 -503 627 -503 640 0 22 65 95 324
364 364 377 600 627 624 662 46 66 51 65 -236 61 -223 -3 -261 -5 -284 -20
-14 -10 -77 -75 -138 -145 -104 -118 -409 -445 -675 -723 -61 -63 -143 -150
-182 -192 l-73 -78 -2 578 -3 577 -218 2 c-162 1 -219 -1 -223 -10z"/>
<path d="M8817 4028 c-16 -12 -17 -92 -15 -1215 2 -970 6 -1205 16 -1215 17
-17 1781 -25 1812 -8 19 10 20 22 20 195 l0 185 -685 0 -685 0 -15 23 c-13 21
-15 69 -13 333 l3 309 613 3 612 2 -2 203 -3 202 -360 0 c-198 0 -469 -4 -602
-9 l-242 -9 -11 28 c-6 17 -9 128 -8 299 l3 271 668 3 667 2 0 185 c0 172 -1
186 -20 205 -20 20 -33 20 -878 20 -671 0 -862 -3 -875 -12z"/>
<path d="M11017 4031 c-27 -4 -53 -14 -58 -22 -5 -8 -8 -89 -7 -187 2 -141 6
-175 18 -182 9 -6 178 -10 408 -10 l392 0 0 -1025 0 -1025 225 0 225 0 0 1025
0 1025 410 0 410 0 0 185 c0 172 -1 186 -20 205 -20 20 -32 20 -987 19 -533
-1 -990 -5 -1016 -8z"/>
<path d="M3313 1165 c-98 -27 -159 -69 -207 -142 -35 -52 -46 -94 -47 -173 -1
-85 22 -140 78 -190 64 -56 128 -84 288 -125 77 -20 160 -45 185 -56 121 -53
155 -158 78 -244 -35 -41 -117 -74 -203 -82 -108 -10 -240 44 -300 123 -14 18
-34 34 -43 33 -27 -1 -107 -53 -110 -72 -5 -26 67 -110 128 -150 115 -74 303
-98 451 -57 93 25 145 57 207 125 41 45 53 66 62 112 15 69 8 158 -15 206 -43
91 -159 161 -325 197 -140 31 -253 67 -277 89 -11 11 -29 40 -38 65 -17 45
-17 46 9 100 38 77 85 99 215 100 62 1 108 -4 131 -13 56 -23 118 -69 137
-101 9 -17 21 -30 25 -30 20 0 118 75 118 90 0 28 -98 123 -160 155 -93 48
-288 68 -387 40z"/>
<path d="M6460 1174 c-15 -4 -137 -250 -213 -429 -19 -44 -50 -114 -70 -155
-19 -41 -63 -138 -97 -215 -34 -77 -72 -162 -85 -190 -12 -27 -31 -72 -41 -98
-20 -55 -13 -66 39 -68 15 0 40 -1 55 -2 15 0 34 3 41 7 11 7 48 82 114 229
l26 57 279 0 c253 0 280 -2 294 -17 9 -10 39 -73 68 -141 29 -67 55 -124 59
-126 11 -7 169 -11 176 -5 3 3 -6 30 -19 60 -13 30 -51 115 -84 189 -33 74
-102 225 -152 335 -51 110 -121 265 -156 345 -36 80 -71 160 -79 178 -8 18
-26 37 -41 42 -25 10 -85 12 -114 4z m84 -261 c13 -27 27 -59 31 -73 4 -14 39
-92 77 -173 38 -81 72 -164 75 -183 6 -34 5 -34 -22 -24 -33 13 -362 12 -386
0 -49 -27 -28 28 153 413 23 48 43 87 45 87 1 0 13 -21 27 -47z"/>
<path d="M7773 1153 l-153 -4 0 -564 c0 -445 3 -565 13 -566 32 -2 132 3 136
7 3 3 7 105 10 227 l6 222 117 7 c69 5 128 4 142 -2 29 -11 60 -50 208 -265
60 -88 117 -168 126 -177 12 -12 36 -17 82 -19 100 -2 113 -1 107 14 -3 8 -62
93 -130 190 -177 247 -180 252 -161 271 8 9 33 20 54 26 180 49 258 328 137
492 -32 43 -111 97 -176 120 -61 22 -217 28 -518 21z m485 -173 c62 -35 92
-90 92 -169 0 -93 -33 -142 -118 -174 -34 -14 -80 -17 -240 -17 -141 0 -201 3
-210 12 -17 17 -17 349 1 367 9 9 63 11 222 9 203 -3 212 -4 253 -28z"/>
<path d="M4460 596 c0 -487 2 -555 15 -566 12 -10 19 -10 27 -2 7 7 34 12 60
12 l48 0 2 233 3 232 318 3 c174 1 318 1 319 0 1 -2 5 -106 8 -233 l5 -230 74
-3 c53 -2 77 1 82 10 5 7 9 251 9 543 0 292 -4 536 -9 543 -5 9 -29 12 -82 10
l-74 -3 -5 -240 c-3 -132 -7 -241 -8 -242 -1 -2 -139 -3 -306 -3 -264 0 -307
2 -320 16 -14 13 -16 50 -16 245 l0 229 -75 0 -75 0 0 -554z"/>
<path d="M9150 595 l0 -555 23 0 c12 0 100 -5 196 -10 96 -5 267 -10 380 -11
l206 -1 0 74 0 73 -314 3 c-212 1 -319 6 -328 13 -10 9 -13 52 -13 180 l0 169
308 2 307 3 3 63 3 62 -291 0 c-182 0 -299 4 -311 10 -18 10 -19 23 -19 170 0
88 1 161 3 162 1 1 148 5 327 8 l325 5 3 68 3 67 -406 0 -405 0 0 -555z"/>
</g>
</svg>
